<?xml version="1.0" encoding="UTF-8" standalone="no"?>
<!DOCTYPE svg PUBLIC "-//W3C//DTD SVG 1.1//EN" "http://www.w3.org/Graphics/SVG/1.1/DTD/svg11.dtd">
<svg width="100%" height="100%" viewBox="0 0 451 535" version="1.1" xmlns="http://www.w3.org/2000/svg" xmlns:xlink="http://www.w3.org/1999/xlink" xml:space="preserve" xmlns:serif="http://www.serif.com/" style="fill-rule:evenodd;clip-rule:evenodd;stroke-linejoin:round;stroke-miterlimit:2;">
    <g transform="matrix(1,0,0,1,-381.869,-1653.97)">
        <g id="path4" transform="matrix(0.450282,0,0,0.450282,381.869,1653.97)">
            <path d="M979.042,925.188C961.088,966.665 939.836,1004.85 915.214,1039.95C881.651,1087.8 854.17,1120.92 832.992,1139.32C800.162,1169.51 764.986,1184.97 727.32,1185.85C700.279,1185.85 667.668,1178.16 629.709,1162.55C591.624,1147.01 556.625,1139.32 524.623,1139.32C491.06,1139.32 455.064,1147.01 416.562,1162.55C378.001,1178.16 346.937,1186.29 323.186,1187.1C287.066,1188.63 251.063,1172.73 215.125,1139.32C192.188,1119.31 163.499,1085.02 129.129,1036.43C92.254,984.546 61.938,924.382 38.187,855.79C12.751,781.703 0,709.96 0,640.504C0,560.942 17.192,492.321 51.627,434.817C78.69,388.628 114.693,352.192 159.754,325.444C204.815,298.696 253.503,285.066 305.936,284.194C334.626,284.194 372.248,293.068 419.002,310.509C465.624,328.009 495.559,336.883 508.684,336.883C518.496,336.883 551.752,326.507 608.127,305.819C661.44,286.634 706.434,278.69 743.295,281.82C843.178,289.881 918.218,329.255 968.123,400.191C878.793,454.317 834.604,530.127 835.483,627.379C836.289,703.13 863.77,766.167 917.778,816.218C942.254,839.448 969.589,857.402 1000,870.153C993.405,889.28 986.443,907.6 979.042,925.188ZM749.964,23.751C749.964,83.125 728.272,138.561 685.036,189.873C632.86,250.873 569.75,286.121 501.312,280.559C500.44,273.436 499.934,265.94 499.934,258.062C499.934,201.063 524.747,140.064 568.812,90.188C590.811,64.935 618.79,43.938 652.719,27.188C686.575,10.688 718.599,1.563 748.718,0.001C749.597,7.938 749.964,15.876 749.964,23.75L749.964,23.751Z" style="fill:white;fill-rule:nonzero;"/>
        </g>
    </g>
</svg>
