<?xml version="1.0" encoding="UTF-8" standalone="no"?>
<!DOCTYPE svg PUBLIC "-//W3C//DTD SVG 1.1//EN" "http://www.w3.org/Graphics/SVG/1.1/DTD/svg11.dtd">
<svg width="100%" height="100%" viewBox="0 0 54 54" version="1.1" xmlns="http://www.w3.org/2000/svg" xmlns:xlink="http://www.w3.org/1999/xlink" xml:space="preserve" xmlns:serif="http://www.serif.com/" style="fill-rule:evenodd;clip-rule:evenodd;stroke-linejoin:round;stroke-miterlimit:2;">
    <g transform="matrix(0.120187,0,0,0.120187,-3.86,-3.85)">
        <g>
            <path d="M462.37,362.743L462.363,362.736C445.549,345.794 404.954,320.913 385.204,310.954L385.201,310.952C369.673,303.13 360.938,299.812 353.367,299.804C344.89,299.795 336.721,303.196 323.058,313.347L323.057,313.348C318.32,316.868 314.243,320.269 310.141,322.856C307.041,324.811 304.005,326.185 299.817,325.292C286.396,322.429 257.634,305.676 232.096,280.218C206.525,254.729 188.789,225.105 185.914,211.712C185.028,207.587 186.441,204.619 188.382,201.568C191.006,197.444 194.436,193.333 197.955,188.542C205.113,178.795 208.672,172.017 210.01,165.624C211.99,156.165 209.541,146.49 200.488,127.023L200.485,127.017C191.102,106.887 165.409,66.399 148.307,49.571C136.125,37.54 129.193,33.718 124.183,32.588C117.901,31.172 112.537,32.733 102.69,36.825L102.658,36.838C92.712,41.023 83.202,46.093 74.214,51.998L74.18,52.02C55.087,64.705 44.815,75.511 37.418,91.318C30.365,106.39 24.54,142.288 60.963,208.456C93.895,268.281 117.001,298.871 164.822,346.56C212.597,394.201 249.319,419.836 303.023,449.955L303.028,449.957C376.618,491.173 405.392,480.549 420.516,473.504C436.374,466.117 447.22,455.929 459.909,436.866L459.927,436.839C465.869,427.834 470.953,418.328 475.133,408.417L475.143,408.394C479.267,398.526 480.829,393.159 479.403,386.867C478.269,381.863 474.435,374.929 462.37,362.743ZM117.9,65.122C119.879,66.805 122.966,69.518 125.836,72.353L125.848,72.364C140.877,87.15 163.237,122.851 171.477,140.527C173.984,145.92 175.961,150.171 177.321,153.76C178.161,155.975 179.027,157.452 178.689,159.069C178.049,162.128 175.588,164.937 172.164,169.599C159.66,186.622 150.374,198.618 154.626,218.428C158.131,234.756 178.333,271.809 209.504,302.882C240.708,333.986 276.743,353.09 293.143,356.588C313.034,360.83 325.147,351.667 342.142,339.033C345.445,336.58 348.141,334.63 350.534,333.2C351.651,332.532 352.376,331.803 353.333,331.804C357.621,331.808 362.009,335.101 370.802,339.53C388.363,348.385 424.681,370.2 439.638,385.265C442.466,388.122 445.172,391.192 446.858,393.169C446.449,394.099 446.01,395.115 445.628,396.03C442.235,404.074 438.085,411.834 433.25,419.165C424.648,432.084 417.758,439.487 407.004,444.496C395.5,449.855 374.645,453.39 318.671,422.042C267.678,393.443 232.781,369.137 187.418,323.9C142.099,278.709 120.205,249.719 88.997,193.024C61.258,142.633 61.03,116.359 66.402,104.882C71.42,94.158 78.896,87.309 91.815,78.723C99.162,73.898 106.934,69.756 115.035,66.348C115.955,65.965 116.972,65.527 117.9,65.122Z" style="fill:rgb(233,84,158);"/>
        </g>
    </g>
</svg>
