<?xml version="1.0" encoding="UTF-8" standalone="no"?>
<!DOCTYPE svg PUBLIC "-//W3C//DTD SVG 1.1//EN" "http://www.w3.org/Graphics/SVG/1.1/DTD/svg11.dtd">
<svg width="100%" height="100%" viewBox="0 0 28 48" version="1.1" xmlns="http://www.w3.org/2000/svg" xmlns:xlink="http://www.w3.org/1999/xlink" xml:space="preserve" xmlns:serif="http://www.serif.com/" style="fill-rule:evenodd;clip-rule:evenodd;stroke-linejoin:round;stroke-miterlimit:2;">
    <g transform="matrix(1,0,0,1,-1445.16,-1939.14)">
        <g transform="matrix(0.189204,0,0,0.189204,1171.73,1572.24)">
            <path d="M1577.38,1939.17C1577.47,1939.17 1577.56,1939.17 1577.66,1939.17C1586.21,1939.17 1593.15,1946.11 1593.15,1954.66C1593.15,1957.36 1592.46,1959.89 1591.25,1962.1L1552.21,2043.85L1577.14,2043.85C1577.24,2043.85 1577.34,2043.85 1577.44,2043.85C1581.74,2043.85 1585.23,2047.34 1585.23,2051.63C1585.23,2053.42 1584.62,2055.07 1583.61,2056.38L1583.63,2056.39L1485.83,2190.59L1485.81,2190.58C1484.84,2191.88 1483.3,2192.72 1481.55,2192.72C1478.62,2192.72 1476.24,2190.34 1476.24,2187.41C1476.24,2186.97 1476.29,2186.54 1476.39,2186.14L1492.4,2094.3L1460.97,2094.3L1460.97,2094.3C1460.86,2094.3 1460.76,2094.3 1460.65,2094.3C1452.1,2094.3 1445.16,2087.36 1445.16,2078.81C1445.16,2077.75 1445.27,2076.72 1445.47,2075.72L1445.44,2075.72L1469.33,1952.14L1469.37,1952.14C1470.59,1944.81 1476.97,1939.2 1484.65,1939.2C1484.74,1939.2 1484.82,1939.21 1484.91,1939.21L1484.91,1939.14L1577.38,1939.14L1577.38,1939.17Z" style="fill:rgb(244,162,27);"/>
        </g>
    </g>
</svg>
