<?xml version="1.0" encoding="UTF-8" standalone="no"?>
<!DOCTYPE svg PUBLIC "-//W3C//DTD SVG 1.1//EN" "http://www.w3.org/Graphics/SVG/1.1/DTD/svg11.dtd">
<svg width="100%" height="100%" viewBox="0 0 50 50" version="1.1" xmlns="http://www.w3.org/2000/svg" xmlns:xlink="http://www.w3.org/1999/xlink" xml:space="preserve" xmlns:serif="http://www.serif.com/" style="fill-rule:evenodd;clip-rule:evenodd;stroke-linejoin:round;stroke-miterlimit:2;">
    <g transform="matrix(1,0,0,1,-2861.69,-1766.66)">
        <path d="M2897.1,1766.66L2876.27,1766.66C2868.25,1766.66 2861.69,1773.22 2861.69,1781.24L2861.69,1802.07C2861.69,1810.09 2868.25,1816.66 2876.27,1816.66L2897.1,1816.66C2905.12,1816.66 2911.69,1810.09 2911.69,1802.07L2911.69,1781.24C2911.69,1773.22 2905.12,1766.66 2897.1,1766.66ZM2897.1,1770.82C2902.81,1770.84 2907.5,1775.53 2907.52,1781.24L2907.52,1802.07C2907.5,1807.78 2902.81,1812.47 2897.1,1812.49L2876.27,1812.49C2870.56,1812.47 2865.87,1807.78 2865.85,1802.07L2865.85,1781.24C2865.87,1775.53 2870.56,1770.84 2876.27,1770.82L2897.1,1770.82ZM2886.69,1779.16C2879.83,1779.16 2874.19,1784.8 2874.19,1791.66C2874.19,1798.51 2879.83,1804.16 2886.69,1804.16C2893.55,1804.16 2899.19,1798.51 2899.19,1791.66C2899.19,1784.8 2893.55,1779.16 2886.69,1779.16ZM2886.69,1783.32C2891.26,1783.32 2895.02,1787.08 2895.02,1791.66C2895.02,1796.23 2891.26,1799.99 2886.69,1799.99C2882.12,1799.99 2878.35,1796.23 2878.35,1791.66C2878.36,1787.09 2882.12,1783.33 2886.69,1783.32ZM2900.23,1781.24C2898.51,1781.24 2897.1,1779.83 2897.1,1778.12C2897.1,1776.4 2898.51,1774.99 2900.23,1774.99C2901.94,1774.99 2903.35,1776.4 2903.35,1778.12C2903.35,1779.83 2901.95,1781.24 2900.24,1781.24L2900.23,1781.24Z" style="fill:rgb(233,84,158);fill-rule:nonzero;"/>
    </g>
</svg>
