<?xml version="1.0" encoding="UTF-8" standalone="no"?>
<!DOCTYPE svg PUBLIC "-//W3C//DTD SVG 1.1//EN" "http://www.w3.org/Graphics/SVG/1.1/DTD/svg11.dtd">
<svg width="100%" height="100%" viewBox="0 0 42 50" version="1.1" xmlns="http://www.w3.org/2000/svg" xmlns:xlink="http://www.w3.org/1999/xlink" xml:space="preserve" xmlns:serif="http://www.serif.com/" style="fill-rule:evenodd;clip-rule:evenodd;stroke-linejoin:round;stroke-miterlimit:2;">
    <g transform="matrix(1,0,0,1,-1675.83,-1928.81)">
        <g transform="matrix(0.829676,0,0,0.829676,285.434,328.524)">
            <path d="M1685.85,1954.92L1680.95,1954.92C1678.12,1954.92 1675.83,1957.21 1675.83,1960.04L1675.83,1983.95C1675.83,1986.78 1678.12,1989.08 1680.95,1989.08L1720.7,1989.08C1723.53,1989.08 1725.83,1986.78 1725.83,1983.95L1725.83,1960.04C1725.83,1957.21 1723.53,1954.92 1720.7,1954.92L1715.8,1954.92L1715.8,1943.79C1715.8,1935.52 1709.09,1928.81 1700.83,1928.81C1692.56,1928.81 1685.85,1935.52 1685.85,1943.79L1685.85,1954.92ZM1711.63,1954.92L1690.02,1954.92L1690.02,1943.79C1690.02,1937.82 1694.86,1932.98 1700.83,1932.98C1706.79,1932.98 1711.63,1937.82 1711.63,1943.79L1711.63,1954.92Z" style="fill:rgb(104,210,232);"/>
        </g>
        <g transform="matrix(0.829676,0,0,0.829676,286.728,328.524)">
            <path d="M1697.52,1971.35C1696.06,1970.68 1695.04,1969.21 1695.04,1967.5C1695.04,1965.17 1696.93,1963.28 1699.27,1963.28C1701.6,1963.28 1703.49,1965.17 1703.49,1967.5C1703.49,1969.21 1702.48,1970.68 1701.02,1971.35L1701.02,1978.3C1701.02,1978.79 1700.62,1979.18 1700.14,1979.18L1698.39,1979.18C1697.91,1979.18 1697.52,1978.79 1697.52,1978.3L1697.52,1971.35Z" style="fill:white;"/>
        </g>
    </g>
</svg>
