<?xml version="1.0" encoding="UTF-8" standalone="no"?>
<!DOCTYPE svg PUBLIC "-//W3C//DTD SVG 1.1//EN" "http://www.w3.org/Graphics/SVG/1.1/DTD/svg11.dtd">
<svg width="100%" height="100%" viewBox="0 0 54 43" version="1.1" xmlns="http://www.w3.org/2000/svg" xmlns:xlink="http://www.w3.org/1999/xlink" xml:space="preserve" xmlns:serif="http://www.serif.com/" style="fill-rule:evenodd;clip-rule:evenodd;stroke-linejoin:round;stroke-miterlimit:2;">
    <g transform="matrix(1,0,0,1,-2683.59,-1770.5)">
        <path d="M2737.44,1777.42C2737.44,1773.6 2734.34,1770.5 2730.52,1770.5L2690.52,1770.5C2686.7,1770.5 2683.59,1773.6 2683.59,1777.42L2683.59,1805.89C2683.59,1809.71 2686.7,1812.81 2690.52,1812.81L2730.52,1812.81C2734.34,1812.81 2737.44,1809.71 2737.44,1805.89L2737.44,1777.42ZM2733.59,1777.42L2733.59,1805.89C2733.59,1807.59 2732.21,1808.96 2730.52,1808.96L2690.52,1808.96C2688.82,1808.96 2687.44,1807.59 2687.44,1805.89L2687.44,1777.42C2687.44,1775.73 2688.82,1774.35 2690.52,1774.35L2730.52,1774.35C2732.21,1774.35 2733.59,1775.73 2733.59,1777.42ZM2692.03,1781.64L2709.34,1795.1C2710.03,1795.64 2711,1795.64 2711.7,1795.1L2729,1781.64C2729.84,1780.98 2729.99,1779.78 2729.34,1778.94C2728.69,1778.1 2727.48,1777.95 2726.64,1778.6L2710.52,1791.14L2694.39,1778.6C2693.55,1777.95 2692.34,1778.1 2691.69,1778.94C2691.04,1779.78 2691.19,1780.98 2692.03,1781.64Z" style="fill:rgb(233,84,158);"/>
    </g>
</svg>
