<?xml version="1.0" encoding="UTF-8" standalone="no"?>
<!DOCTYPE svg PUBLIC "-//W3C//DTD SVG 1.1//EN" "http://www.w3.org/Graphics/SVG/1.1/DTD/svg11.dtd">
<svg width="100%" height="100%" viewBox="0 0 351 95" version="1.1" xmlns="http://www.w3.org/2000/svg" xmlns:xlink="http://www.w3.org/1999/xlink" xml:space="preserve" xmlns:serif="http://www.serif.com/" style="fill-rule:evenodd;clip-rule:evenodd;stroke-linejoin:round;stroke-miterlimit:2;">
    <g transform="matrix(1,0,0,1,-1555.98,-2099.88)">
        <path d="M1643.76,2170.63L1675.24,2170.63C1674.22,2172.78 1673.65,2175.18 1673.65,2177.71C1673.65,2186.82 1681.05,2194.22 1690.16,2194.22C1699.27,2194.22 1706.67,2186.82 1706.67,2177.71C1706.67,2175.18 1706.1,2172.78 1705.08,2170.63L1711.39,2170.63C1713.99,2170.63 1716.1,2168.52 1716.1,2165.92L1716.1,2142.33C1716.1,2141.08 1715.61,2139.88 1714.72,2139L1700.57,2124.85C1699.69,2123.96 1698.49,2123.46 1697.24,2123.46L1683.08,2123.46L1683.08,2104.6C1683.08,2101.99 1680.97,2099.88 1678.37,2099.88L1607.61,2099.88C1607.52,2099.88 1607.44,2099.88 1607.35,2099.89L1580.48,2099.89C1577.84,2099.89 1575.69,2102.03 1575.69,2104.68C1575.69,2107.32 1577.84,2109.47 1580.48,2109.47L1602.89,2109.47L1602.89,2120.84L1588.77,2120.84C1586.12,2120.84 1583.98,2122.99 1583.98,2125.63C1583.98,2128.28 1586.12,2130.42 1588.77,2130.42L1602.89,2130.42L1602.89,2140.22L1560.77,2140.22C1558.12,2140.22 1555.98,2142.37 1555.98,2145.02C1555.98,2147.66 1558.12,2149.81 1560.77,2149.81L1602.89,2149.81L1602.89,2161.04L1576.68,2161.04C1574.04,2161.04 1571.89,2163.18 1571.89,2165.83C1571.89,2168.47 1574.04,2170.62 1576.68,2170.62L1607.26,2170.62C1607.38,2170.63 1607.5,2170.63 1607.61,2170.63L1613.92,2170.63C1612.9,2172.78 1612.33,2175.18 1612.33,2177.71C1612.33,2186.82 1619.73,2194.22 1628.84,2194.22C1637.95,2194.22 1645.35,2186.82 1645.35,2177.71C1645.35,2175.18 1644.78,2172.78 1643.76,2170.63ZM1690.16,2170.63C1694.07,2170.63 1697.24,2173.8 1697.24,2177.71C1697.24,2181.61 1694.07,2184.78 1690.16,2184.78C1686.26,2184.78 1683.08,2181.61 1683.08,2177.71C1683.08,2173.8 1686.26,2170.63 1690.16,2170.63ZM1628.84,2170.63C1632.74,2170.63 1635.91,2173.8 1635.91,2177.71C1635.91,2181.61 1632.74,2184.78 1628.84,2184.78C1624.93,2184.78 1621.76,2181.61 1621.76,2177.71C1621.76,2173.8 1624.93,2170.63 1628.84,2170.63ZM1673.65,2161.2L1612.33,2161.2C1612.33,2161.2 1612.33,2109.31 1612.33,2109.31L1673.65,2109.31L1673.65,2161.2ZM1683.08,2132.9L1695.28,2132.9C1695.28,2132.9 1706.67,2144.28 1706.67,2144.28C1706.67,2144.28 1706.67,2161.2 1706.67,2161.2C1706.67,2161.2 1683.08,2161.2 1683.08,2161.2L1683.08,2136.73L1683.08,2132.9Z" style="fill:rgb(130,196,134);"/>
        <path d="M1757.13,2135.29C1755.84,2136.97 1754.06,2138.24 1751.78,2139.1C1749.51,2139.96 1746.92,2140.39 1744.02,2140.39C1741.04,2140.39 1738.4,2139.72 1736.11,2138.37C1733.82,2137.01 1732.05,2135.08 1730.8,2132.57C1729.56,2130.05 1728.91,2127.12 1728.86,2123.77L1728.86,2120.98C1728.86,2115.61 1730.14,2111.42 1732.72,2108.4C1735.29,2105.38 1738.88,2103.87 1743.48,2103.87C1747.44,2103.87 1750.58,2104.85 1752.91,2106.8C1755.23,2108.75 1756.63,2111.57 1757.11,2115.25L1751.05,2115.25C1750.37,2110.97 1747.88,2108.82 1743.61,2108.82C1740.84,2108.82 1738.73,2109.82 1737.29,2111.82C1735.85,2113.81 1735.11,2116.74 1735.06,2120.59L1735.06,2123.33C1735.06,2127.17 1735.87,2130.15 1737.49,2132.28C1739.11,2134.4 1741.36,2135.46 1744.24,2135.46C1747.4,2135.46 1749.64,2134.74 1750.98,2133.31L1750.98,2126.35L1743.65,2126.35L1743.65,2121.67L1757.13,2121.67L1757.13,2135.29ZM1891.43,2130.75C1891.43,2129.19 1890.88,2127.98 1889.78,2127.14C1888.68,2126.29 1886.7,2125.43 1883.84,2124.57C1880.98,2123.71 1878.7,2122.75 1877,2121.69C1873.76,2119.66 1872.14,2117 1872.14,2113.73C1872.14,2110.87 1873.31,2108.51 1875.65,2106.65C1877.98,2104.8 1881.02,2103.87 1884.74,2103.87C1887.22,2103.87 1889.42,2104.32 1891.36,2105.24C1893.3,2106.15 1894.82,2107.45 1895.92,2109.13C1897.03,2110.82 1897.58,2112.68 1897.58,2114.73L1891.43,2114.73C1891.43,2112.88 1890.85,2111.43 1889.69,2110.38C1888.52,2109.33 1886.86,2108.8 1884.69,2108.8C1882.67,2108.8 1881.11,2109.23 1879.99,2110.1C1878.88,2110.96 1878.32,2112.16 1878.32,2113.71C1878.32,2115.01 1878.92,2116.1 1880.13,2116.97C1881.33,2117.84 1883.32,2118.68 1886.09,2119.51C1888.85,2120.33 1891.07,2121.26 1892.75,2122.31C1894.43,2123.36 1895.66,2124.57 1896.44,2125.93C1897.22,2127.29 1897.61,2128.88 1897.61,2130.7C1897.61,2133.66 1896.47,2136.02 1894.2,2137.77C1891.93,2139.52 1888.85,2140.39 1884.96,2140.39C1882.39,2140.39 1880.03,2139.92 1877.87,2138.96C1875.71,2138.01 1874.04,2136.7 1872.84,2135.02C1871.64,2133.35 1871.05,2131.39 1871.05,2129.16L1877.22,2129.16C1877.22,2131.18 1877.89,2132.74 1879.23,2133.85C1880.56,2134.96 1882.47,2135.51 1884.96,2135.51C1887.11,2135.51 1888.73,2135.07 1889.81,2134.2C1890.89,2133.33 1891.43,2132.18 1891.43,2130.75ZM1865.26,2139.9L1859.11,2139.9L1859.11,2104.36L1865.26,2104.36L1865.26,2139.9ZM1776.98,2126.21L1770.09,2126.21L1770.09,2139.9L1763.92,2139.9L1763.92,2104.36L1776.42,2104.36C1780.52,2104.36 1783.68,2105.28 1785.91,2107.12C1788.14,2108.95 1789.26,2111.62 1789.26,2115.1C1789.26,2117.48 1788.68,2119.47 1787.54,2121.07C1786.39,2122.67 1784.79,2123.91 1782.74,2124.77L1790.72,2139.59L1790.72,2139.9L1784.11,2139.9L1776.98,2126.21ZM1854.08,2109.34L1842.99,2109.34L1842.99,2139.9L1836.87,2139.9L1836.87,2109.34L1825.88,2109.34L1825.88,2104.36L1854.08,2104.36L1854.08,2109.34ZM1815.02,2131.63L1801.25,2131.63L1798.37,2139.9L1791.94,2139.9L1805.37,2104.36L1810.91,2104.36L1824.37,2139.9L1817.92,2139.9L1815.02,2131.63ZM1802.98,2126.65L1813.28,2126.65L1808.13,2111.9L1802.98,2126.65ZM1770.09,2121.25L1776.44,2121.25C1778.53,2121.25 1780.15,2120.73 1781.33,2119.68C1782.5,2118.63 1783.08,2117.19 1783.08,2115.37C1783.08,2113.46 1782.54,2111.99 1781.46,2110.95C1780.38,2109.91 1778.76,2109.37 1776.61,2109.34L1770.09,2109.34L1770.09,2121.25Z" style="fill:rgb(130,196,134);fill-rule:nonzero;"/>
        <path d="M1758.25,2172.89C1758.25,2176.38 1757.65,2179.43 1756.45,2182.06C1755.24,2184.69 1753.52,2186.71 1751.28,2188.12C1749.05,2189.52 1746.47,2190.23 1743.56,2190.23C1740.67,2190.23 1738.11,2189.52 1735.85,2188.12C1733.6,2186.71 1731.86,2184.7 1730.63,2182.1C1729.4,2179.49 1728.78,2176.49 1728.76,2173.09L1728.76,2171.09C1728.76,2167.62 1729.38,2164.56 1730.6,2161.91C1731.83,2159.25 1733.57,2157.22 1735.81,2155.82C1738.04,2154.41 1740.61,2153.7 1743.51,2153.7C1746.4,2153.7 1748.97,2154.4 1751.21,2155.79C1753.45,2157.18 1755.18,2159.18 1756.4,2161.8C1757.62,2164.41 1758.24,2167.45 1758.25,2170.92L1758.25,2172.89ZM1827.15,2185.12C1825.86,2186.8 1824.08,2188.07 1821.8,2188.93C1819.52,2189.8 1816.94,2190.23 1814.04,2190.23C1811.06,2190.23 1808.42,2189.55 1806.13,2188.2C1803.83,2186.85 1802.06,2184.92 1800.82,2182.4C1799.57,2179.89 1798.93,2176.95 1798.88,2173.6L1798.88,2170.82C1798.88,2165.45 1800.16,2161.25 1802.74,2158.23C1805.31,2155.21 1808.9,2153.7 1813.5,2153.7C1817.46,2153.7 1820.6,2154.68 1822.93,2156.63C1825.25,2158.59 1826.65,2161.4 1827.12,2165.08L1821.07,2165.08C1820.39,2160.8 1817.9,2158.66 1813.62,2158.66C1810.86,2158.66 1808.75,2159.66 1807.31,2161.65C1805.87,2163.64 1805.13,2166.57 1805.08,2170.43L1805.08,2173.16C1805.08,2177 1805.89,2179.99 1807.51,2182.11C1809.13,2184.23 1811.38,2185.3 1814.26,2185.3C1817.42,2185.3 1819.66,2184.58 1821,2183.15L1821,2176.19L1813.67,2176.19L1813.67,2171.5L1827.15,2171.5L1827.15,2185.12ZM1871.97,2189.74L1865.82,2189.74L1865.82,2154.19L1871.97,2154.19L1871.97,2189.74ZM1892.63,2176.04L1885.74,2176.04L1885.74,2189.74L1879.57,2189.74L1879.57,2154.19L1892.07,2154.19C1896.17,2154.19 1899.33,2155.11 1901.56,2156.95C1903.79,2158.79 1904.91,2161.45 1904.91,2164.93C1904.91,2167.31 1904.34,2169.3 1903.19,2170.9C1902.04,2172.51 1900.44,2173.74 1898.39,2174.6L1906.37,2189.42L1906.37,2189.74L1899.76,2189.74L1892.63,2176.04ZM1792.6,2189.74L1786.43,2189.74L1770.58,2164.52L1770.58,2189.74L1764.41,2189.74L1764.41,2154.19L1770.58,2154.19L1786.48,2179.51L1786.48,2154.19L1792.6,2154.19L1792.6,2189.74ZM1844.14,2174.38L1840.11,2178.66L1840.11,2189.74L1833.94,2189.74L1833.94,2154.19L1840.11,2154.19L1840.11,2170.87L1843.53,2166.64L1853.93,2154.19L1861.4,2154.19L1848.19,2169.94L1862.16,2189.74L1854.84,2189.74L1844.14,2174.38ZM1752.08,2171.04C1752.08,2167.1 1751.33,2164.08 1749.84,2161.98C1748.35,2159.88 1746.24,2158.83 1743.51,2158.83C1740.84,2158.83 1738.75,2159.88 1737.25,2161.97C1735.74,2164.06 1734.97,2167.02 1734.94,2170.84L1734.94,2172.89C1734.94,2176.8 1735.7,2179.82 1737.22,2181.95C1738.74,2184.08 1740.85,2185.15 1743.56,2185.15C1746.29,2185.15 1748.39,2184.11 1749.87,2182.03C1751.34,2179.94 1752.08,2176.9 1752.08,2172.89L1752.08,2171.04ZM1885.74,2171.09L1892.09,2171.09C1894.17,2171.09 1895.8,2170.56 1896.97,2169.51C1898.15,2168.46 1898.73,2167.03 1898.73,2165.2C1898.73,2163.3 1898.19,2161.83 1897.11,2160.78C1896.03,2159.74 1894.41,2159.21 1892.26,2159.17L1885.74,2159.17L1885.74,2171.09Z" style="fill:rgb(130,196,134);fill-rule:nonzero;"/>
    </g>
</svg>
