<?xml version="1.0" encoding="UTF-8" standalone="no"?>
<!DOCTYPE svg PUBLIC "-//W3C//DTD SVG 1.1//EN" "http://www.w3.org/Graphics/SVG/1.1/DTD/svg11.dtd">
<svg width="100%" height="100%" viewBox="0 0 50 50" version="1.1" xmlns="http://www.w3.org/2000/svg" xmlns:xlink="http://www.w3.org/1999/xlink" xml:space="preserve" xmlns:serif="http://www.serif.com/" style="fill-rule:evenodd;clip-rule:evenodd;stroke-linejoin:round;stroke-miterlimit:2;">
    <g transform="matrix(1,0,0,1,-1598.24,-1936.68)">
        <g transform="matrix(0.983735,0,0,0.983735,126.793,23.1385)">
            <circle cx="1521.19" cy="1970.59" r="25.413" style="fill:rgb(130,196,134);"/>
        </g>
        <g transform="matrix(0.652851,0,0,0.652851,630.131,675.178)">
            <path d="M1543.41,1970.59C1543.41,1982.86 1533.45,1992.82 1521.19,1992.82C1508.92,1992.82 1498.97,1982.86 1498.97,1970.59C1498.97,1968.83 1497.54,1967.4 1495.78,1967.4C1494.01,1967.4 1492.58,1968.83 1492.58,1970.59C1492.58,1986.38 1505.4,1999.2 1521.19,1999.2C1536.98,1999.2 1549.79,1986.38 1549.79,1970.59C1549.79,1968.83 1548.36,1967.4 1546.6,1967.4C1544.84,1967.4 1543.41,1968.83 1543.41,1970.59Z" style="fill:white;"/>
        </g>
        <g transform="matrix(1,0,0,1,0.231044,0)">
            <path d="M1615.51,1946.89C1614.69,1946.89 1613.88,1947.21 1613.2,1947.9C1612.35,1948.76 1611.63,1950.46 1611.63,1952.47C1611.63,1954.48 1612.35,1956.18 1613.2,1957.05C1613.88,1957.73 1614.69,1958.05 1615.51,1958.05C1616.33,1958.05 1617.13,1957.73 1617.81,1957.05C1618.67,1956.18 1619.39,1954.48 1619.39,1952.47C1619.39,1950.46 1618.67,1948.76 1617.81,1947.9C1617.13,1947.21 1616.33,1946.89 1615.51,1946.89Z" style="fill:white;"/>
        </g>
        <g transform="matrix(1,0,0,1,15.231,0)">
            <path d="M1615.51,1946.89C1614.69,1946.89 1613.88,1947.21 1613.2,1947.9C1612.35,1948.76 1611.63,1950.46 1611.63,1952.47C1611.63,1954.48 1612.35,1956.18 1613.2,1957.05C1613.88,1957.73 1614.69,1958.05 1615.51,1958.05C1616.33,1958.05 1617.13,1957.73 1617.81,1957.05C1618.67,1956.18 1619.39,1954.48 1619.39,1952.47C1619.39,1950.46 1618.67,1948.76 1617.81,1947.9C1617.13,1947.21 1616.33,1946.89 1615.51,1946.89Z" style="fill:white;"/>
        </g>
    </g>
</svg>
