<?xml version="1.0" encoding="UTF-8" standalone="no"?>
<!DOCTYPE svg PUBLIC "-//W3C//DTD SVG 1.1//EN" "http://www.w3.org/Graphics/SVG/1.1/DTD/svg11.dtd">
<svg width="100%" height="100%" viewBox="0 0 50 51" version="1.1" xmlns="http://www.w3.org/2000/svg" xmlns:xlink="http://www.w3.org/1999/xlink" xml:space="preserve" xmlns:serif="http://www.serif.com/" style="fill-rule:evenodd;clip-rule:evenodd;stroke-linejoin:round;stroke-miterlimit:2;">
    <g transform="matrix(0.111607,0,0,0.111607,-3.57,-3.58)">
        <g>
            <path d="M414.73,97.1C372.918,55.268 316.084,31.82 256.94,32C134,32 33.92,131.58 33.87,254C33.816,292.978 44.092,331.283 63.65,365L32,480L150.25,449.13C182.98,466.861 219.625,476.143 256.85,476.13L256.94,476.13C379.87,476.13 479.94,376.54 480,254.13C480.15,195.181 456.621,138.574 414.73,97.1ZM256.94,438.66L256.86,438.66C223.676,438.67 191.089,429.787 162.5,412.94L155.73,408.94L85.56,427.26L104.29,359.17L99.88,352.17C81.326,322.795 71.492,288.744 71.53,254C71.53,152.27 154.74,69.5 257.01,69.5C358.487,69.319 442.143,152.663 442.34,254.14C442.3,355.88 359.13,438.66 256.94,438.66ZM358.63,300.47C353.06,297.69 325.63,284.27 320.55,282.42C315.47,280.57 311.72,279.64 308.01,285.2C304.3,290.76 293.61,303.2 290.36,306.95C287.11,310.7 283.86,311.11 278.29,308.33C272.72,305.55 254.75,299.7 233.46,280.8C216.89,266.09 205.71,247.93 202.46,242.38C199.21,236.83 202.11,233.82 204.9,231.06C207.41,228.57 210.47,224.58 213.26,221.34C216.05,218.1 216.98,215.78 218.83,212.08C220.68,208.38 219.76,205.14 218.37,202.37C216.98,199.6 205.83,172.29 201.19,161.18C196.66,150.36 192.07,151.83 188.65,151.66C185.4,151.5 181.65,151.46 177.96,151.46C172.26,151.608 166.872,154.125 163.1,158.4C157.99,163.96 143.59,177.4 143.59,204.68C143.59,231.96 163.59,258.36 166.35,262.06C169.11,265.76 205.65,321.79 261.56,345.82C271.942,350.266 282.55,354.165 293.34,357.5C306.69,361.72 318.84,361.13 328.44,359.7C339.15,358.11 361.44,346.28 366.07,333.32C370.7,320.36 370.71,309.26 369.32,306.95C367.93,304.64 364.21,303.24 358.63,300.47Z" style="fill:rgb(233,84,158);"/>
        </g>
    </g>
</svg>
