<?xml version="1.0" encoding="UTF-8" standalone="no"?>
<!DOCTYPE svg PUBLIC "-//W3C//DTD SVG 1.1//EN" "http://www.w3.org/Graphics/SVG/1.1/DTD/svg11.dtd">
<svg width="100%" height="100%" viewBox="0 0 1165 203" version="1.1" xmlns="http://www.w3.org/2000/svg" xmlns:xlink="http://www.w3.org/1999/xlink" xml:space="preserve" xmlns:serif="http://www.serif.com/" style="fill-rule:evenodd;clip-rule:evenodd;stroke-linejoin:round;stroke-miterlimit:2;">
    <g transform="matrix(1,0,0,1,-1321.91,-1496.03)">
        <g transform="matrix(5.21226,0,0,5.21226,-6866.94,-5485.38)">
            <g transform="matrix(50,0,0,50,1568.17,1377.92)">
                <path d="M0.544,-0.197C0.544,-0.451 0.176,-0.353 0.176,-0.51C0.176,-0.577 0.227,-0.609 0.293,-0.607C0.365,-0.605 0.406,-0.562 0.41,-0.515L0.536,-0.515C0.526,-0.634 0.432,-0.704 0.299,-0.704C0.157,-0.704 0.06,-0.628 0.06,-0.506C0.06,-0.25 0.429,-0.359 0.429,-0.191C0.429,-0.132 0.384,-0.089 0.304,-0.089C0.225,-0.089 0.185,-0.135 0.18,-0.192L0.058,-0.192C0.058,-0.069 0.165,0.007 0.304,0.007C0.459,0.007 0.544,-0.093 0.544,-0.197Z" style="fill:rgb(52,50,49);fill-rule:nonzero;"/>
            </g>
            <g transform="matrix(50,0,0,50,1598.37,1377.92)">
                <path d="M0.075,-0L0.189,-0L0.189,-0.237L0.393,-0L0.547,-0L0.293,-0.275L0.547,-0.551L0.389,-0.551L0.189,-0.31L0.189,-0.74L0.075,-0.74L0.075,-0Z" style="fill:rgb(52,50,49);fill-rule:nonzero;"/>
            </g>
            <g transform="matrix(50,0,0,50,1626.07,1377.92)">
                <path d="M0.075,-0L0.189,-0L0.189,-0.551L0.075,-0.551L0.075,-0ZM0.133,-0.624C0.173,-0.624 0.205,-0.656 0.205,-0.697C0.205,-0.738 0.173,-0.77 0.133,-0.77C0.092,-0.77 0.06,-0.738 0.06,-0.697C0.06,-0.656 0.092,-0.624 0.133,-0.624Z" style="fill:rgb(52,50,49);fill-rule:nonzero;"/>
            </g>
            <g transform="matrix(50,0,0,50,1639.27,1377.92)">
                <path d="M0.466,-0L0.579,-0L0.579,-0.325C0.579,-0.479 0.482,-0.56 0.353,-0.56C0.287,-0.56 0.226,-0.533 0.189,-0.488L0.189,-0.551L0.075,-0.551L0.075,-0L0.189,-0L0.189,-0.308C0.189,-0.409 0.244,-0.461 0.328,-0.461C0.411,-0.461 0.466,-0.409 0.466,-0.308L0.466,-0Z" style="fill:rgb(52,50,49);fill-rule:nonzero;"/>
            </g>
            <g transform="matrix(50,0,0,50,1671.72,1377.92)">
                <path d="M0.033,-0.352C0.033,-0.142 0.179,0.005 0.386,0.005C0.553,0.005 0.679,-0.088 0.719,-0.24L0.531,-0.24C0.502,-0.18 0.449,-0.15 0.384,-0.15C0.279,-0.15 0.207,-0.228 0.207,-0.352C0.207,-0.476 0.279,-0.554 0.384,-0.554C0.449,-0.554 0.502,-0.524 0.531,-0.464L0.719,-0.464C0.679,-0.616 0.553,-0.71 0.386,-0.71C0.179,-0.71 0.033,-0.562 0.033,-0.352Z" style="fill:rgb(232,85,158);fill-rule:nonzero;"/>
            </g>
            <g transform="matrix(50,0,0,50,1709.82,1377.92)">
                <path d="M0.028,-0.28C0.028,-0.104 0.137,0.008 0.273,0.008C0.356,0.008 0.415,-0.03 0.446,-0.079L0.446,-0L0.617,-0L0.617,-0.558L0.446,-0.558L0.446,-0.479C0.416,-0.528 0.357,-0.566 0.274,-0.566C0.137,-0.566 0.028,-0.456 0.028,-0.28ZM0.446,-0.279C0.446,-0.19 0.389,-0.141 0.324,-0.141C0.26,-0.141 0.202,-0.191 0.202,-0.28C0.202,-0.369 0.26,-0.417 0.324,-0.417C0.389,-0.417 0.446,-0.368 0.446,-0.279Z" style="fill:rgb(232,85,158);fill-rule:nonzero;"/>
            </g>
            <g transform="matrix(50,0,0,50,1743.77,1377.92)">
                <path d="M0.233,-0.259C0.233,-0.355 0.28,-0.383 0.361,-0.383L0.408,-0.383L0.408,-0.564C0.333,-0.564 0.272,-0.524 0.233,-0.465L0.233,-0.558L0.062,-0.558L0.062,-0L0.233,-0L0.233,-0.259Z" style="fill:rgb(232,85,158);fill-rule:nonzero;"/>
            </g>
            <g transform="matrix(50,0,0,50,1765.17,1377.92)">
                <path d="M0.308,-0.429C0.365,-0.429 0.413,-0.394 0.413,-0.333L0.199,-0.333C0.209,-0.395 0.252,-0.429 0.308,-0.429ZM0.575,-0.185L0.393,-0.185C0.379,-0.155 0.352,-0.131 0.304,-0.131C0.249,-0.131 0.204,-0.165 0.198,-0.238L0.585,-0.238C0.587,-0.255 0.588,-0.272 0.588,-0.288C0.588,-0.458 0.473,-0.566 0.31,-0.566C0.144,-0.566 0.028,-0.456 0.028,-0.279C0.028,-0.102 0.146,0.008 0.31,0.008C0.449,0.008 0.548,-0.076 0.575,-0.185Z" style="fill:rgb(232,85,158);fill-rule:nonzero;"/>
            </g>
        </g>
    </g>
</svg>
